<svg width="1020" height="67" viewBox="0 0 1020 67" fill="none" xmlns="http://www.w3.org/2000/svg">
<path d="M16.48 33.48C19.6267 33.48 22.32 32.36 24.56 30.12C26.7467 27.9333 27.84 25.2933 27.84 22.2C27.84 19.1067 26.7467 16.4133 24.56 14.12C22.2667 11.9333 19.5733 10.84 16.48 10.84H10.24V33.48H16.48ZM16.48 0.999996C22.2933 0.999996 27.3067 3.05333 31.52 7.16C35.68 11.32 37.76 16.3333 37.76 22.2C37.76 28.0133 35.68 32.9733 31.52 37.08C27.36 41.24 22.3467 43.32 16.48 43.32H10.24V57H0.4V0.999996H16.48ZM51.9994 0.999996V47.16H73.2794V57H42.1594V0.999996H51.9994ZM120.339 57H109.939L105.619 42.36H87.1388L82.8188 57H72.4188L89.1388 0.999996H103.619L120.339 57ZM102.659 32.44L96.4188 11.4L90.0988 32.44H102.659ZM133.409 22.92V57H123.569V0.999996H129.249L155.409 35.08V0.999996H165.329V57H159.649L133.409 22.92ZM168.356 0.999996H205.636V10.84H191.956V57H182.036V10.84H168.356V0.999996ZM268.554 57H258.154L253.834 42.36H235.354L231.034 57H220.634L237.354 0.999996H251.834L268.554 57ZM250.874 32.44L244.634 11.4L238.314 32.44H250.874ZM283.531 0.999996H320.811V10.84H307.131V57H297.211V10.84H283.531V0.999996ZM339.983 33.48C343.13 33.48 345.823 32.36 348.063 30.12C350.25 27.9333 351.343 25.2933 351.343 22.2C351.343 19.1067 350.25 16.4133 348.063 14.12C345.77 11.9333 343.076 10.84 339.983 10.84H333.743V33.48H339.983ZM361.263 22.2C361.263 26.1467 360.25 29.7733 358.223 33.08C356.09 36.44 353.37 39.0267 350.063 40.84L361.103 57H349.503L340.383 43.32H333.743V57H323.903V0.999996H339.983C345.796 0.999996 350.81 3.05333 355.023 7.16C359.183 11.32 361.263 16.3333 361.263 22.2ZM376.128 10.84V24.04H391.088V33.96H376.128V47.16H397.408V57H366.288V0.999996H397.408V10.84H376.128ZM412.262 10.84V24.04H427.222V33.96H412.262V47.16H433.542V57H402.422V0.999996H433.542V10.84H412.262ZM442.956 46.36C444.61 46.36 446.023 46.92 447.196 48.04C448.37 49.2133 448.956 50.5733 448.956 52.12C448.956 53.08 448.69 54.0667 448.156 55.08L441.116 66.44H437.596L441.436 57.72C438.45 56.6533 436.956 54.7867 436.956 52.12C436.956 50.5733 437.543 49.2133 438.716 48.04C439.943 46.92 441.356 46.36 442.956 46.36ZM486.759 22.92V57H476.919V0.999996H482.599L508.759 35.08V0.999996H518.679V57H512.999L486.759 22.92ZM535.066 0.999996V36.68C535.066 39.7733 536.159 42.3333 538.346 44.36C540.532 46.44 543.172 47.48 546.266 47.48C549.359 47.48 552.026 46.44 554.266 44.36C556.452 42.3333 557.546 39.7733 557.546 36.68V0.999996H567.386V36.68C567.386 42.4933 565.332 47.4533 561.226 51.56C557.172 55.72 552.212 57.8 546.346 57.8H546.266C540.452 57.8 535.492 55.72 531.386 51.56C527.226 47.4533 525.146 42.4933 525.146 36.68V0.999996H535.066ZM569.793 0.999996H607.073V10.84H593.393V57H583.473V10.84H569.793V0.999996ZM619.366 0.999996V36.68C619.366 39.7733 620.459 42.3333 622.646 44.36C624.832 46.44 627.472 47.48 630.566 47.48C633.659 47.48 636.326 46.44 638.566 44.36C640.752 42.3333 641.846 39.7733 641.846 36.68V0.999996H651.686V36.68C651.686 42.4933 649.632 47.4533 645.526 51.56C641.472 55.72 636.512 57.8 630.646 57.8H630.566C624.752 57.8 619.792 55.72 615.686 51.56C611.526 47.4533 609.446 42.4933 609.446 36.68V0.999996H619.366ZM674.333 33.48C677.48 33.48 680.173 32.36 682.413 30.12C684.6 27.9333 685.693 25.2933 685.693 22.2C685.693 19.1067 684.6 16.4133 682.413 14.12C680.12 11.9333 677.426 10.84 674.333 10.84H668.093V33.48H674.333ZM695.613 22.2C695.613 26.1467 694.6 29.7733 692.573 33.08C690.44 36.44 687.72 39.0267 684.413 40.84L695.453 57H683.853L674.733 43.32H668.093V57H658.253V0.999996H674.333C680.146 0.999996 685.16 3.05333 689.373 7.16C693.533 11.32 695.613 16.3333 695.613 22.2ZM710.477 10.84V24.04H725.437V33.96H710.477V47.16H731.757V57H700.637V0.999996H731.757V10.84H710.477ZM748.518 0.999996H785.798V10.84H772.118V57H762.198V10.84H748.518V0.999996ZM798.731 0.999996V24.04H817.291V0.999996H827.211V57H817.291V33.96H798.731V57H788.891V0.999996H798.731ZM844.24 10.84V24.04H859.2V33.96H844.24V47.16H865.52V57H834.4V0.999996H865.52V10.84H844.24ZM912.041 57C906.867 57 902.147 55.7467 897.881 53.24C893.614 50.7333 890.227 47.3467 887.721 43.08C885.161 38.8133 883.881 34.12 883.881 29C883.881 23.8267 885.161 19.1333 887.721 14.92C890.174 10.76 893.561 7.37333 897.881 4.76C902.147 2.25333 906.867 0.999996 912.041 0.999996H918.521V11.08H912.041C907.134 11.08 902.894 12.8133 899.321 16.28C895.801 19.8 894.041 24.04 894.041 29C894.041 33.96 895.801 38.2 899.321 41.72C902.841 45.24 907.081 47 912.041 47H918.521V57H912.041ZM932.804 0.519998V56.52H922.964V0.519998H932.804ZM935.878 0.999996H973.158V10.84H959.478V57H949.558V10.84H935.878V0.999996ZM1000.17 33.32V57H990.33V33.32L971.37 0.999996H982.81L995.21 22.2L1007.69 0.999996H1019.13L1000.17 33.32Z" fill="#474E26"/>
</svg>
