<svg width="48" height="48" viewBox="0 0 48 48" fill="none" xmlns="http://www.w3.org/2000/svg">
<path d="M0 24C0 10.7452 10.7452 0 24 0C37.2548 0 48 10.7452 48 24C48 37.2548 37.2548 48 24 48C10.7452 48 0 37.2548 0 24Z" fill="#474E26"/>
<path d="M25.1111 22.1121C25.1111 21.4984 24.6136 21.0009 24 21.0009C23.3864 21.0009 22.8889 21.4984 22.8889 22.1121V25.8889C22.8889 26.5025 23.3863 27 24 27C24.6136 27 25.1111 26.5025 25.1111 25.8889L25.1111 22.1121Z" fill="#F2E1B6"/>
<path d="M20.6667 22.1111C20.6667 21.4975 20.1692 21 19.5556 21C18.9419 21 18.4444 21.4975 18.4444 22.1111L18.4444 25.8889C18.4444 26.5025 18.9419 27 19.5556 27C20.1692 27 20.6667 26.5025 20.6667 25.8889V22.1111Z" fill="#F2E1B6"/>
<path d="M29.5556 22.1111C29.5556 21.4975 29.0581 21 28.4444 21C27.8308 21 27.3333 21.4975 27.3333 22.1111V25.8889C27.3333 26.5025 27.8308 27 28.4444 27C29.0581 27 29.5556 26.5025 29.5556 25.8889V22.1111Z" fill="#F2E1B6"/>
<path d="M16.2222 22.1111C16.2222 21.4975 15.7248 21 15.1111 21C14.4975 21 14 21.4975 14 22.1111V25.8889C14 26.5025 14.4975 27 15.1111 27C15.7248 27 16.2222 26.5025 16.2222 25.8889V22.1111Z" fill="#F2E1B6"/>
<path d="M34 22.1111C34 21.4975 33.5025 21 32.8889 21C32.2752 21 31.7778 21.4975 31.7778 22.1111V25.8889C31.7778 26.5025 32.2752 27 32.8889 27C33.5025 27 34 26.5025 34 25.8889V22.1111Z" fill="#F2E1B6"/>
</svg>
