<svg width="48" height="48" viewBox="0 0 48 48" fill="none" xmlns="http://www.w3.org/2000/svg">
<path d="M0 24C0 10.7452 10.7452 0 24 0C37.2548 0 48 10.7452 48 24C48 37.2548 37.2548 48 24 48C10.7452 48 0 37.2548 0 24Z" fill="#F9F1DB"/>
<path d="M25.1111 18.1111C25.1111 17.4975 24.6136 17 24 17C23.3863 17 22.8889 17.4975 22.8889 18.1111V29.963C22.8889 30.5766 23.3863 31.0741 24 31.0741C24.6136 31.0741 25.1111 30.5766 25.1111 29.963L25.1111 18.1111Z" fill="#474E26"/>
<path d="M20.6667 19.5926C20.6667 18.9789 20.1692 18.4815 19.5556 18.4815C18.9419 18.4815 18.4444 18.9789 18.4444 19.5926L18.4444 28.4815C18.4444 29.0951 18.9419 29.5926 19.5556 29.5926C20.1692 29.5926 20.6667 29.0951 20.6667 28.4815V19.5926Z" fill="#474E26"/>
<path d="M29.5556 19.5926C29.5556 18.9789 29.0581 18.4815 28.4444 18.4815C27.8308 18.4815 27.3333 18.9789 27.3333 19.5926V28.4815C27.3333 29.0951 27.8308 29.5926 28.4444 29.5926C29.0581 29.5926 29.5556 29.0951 29.5556 28.4815V19.5926Z" fill="#474E26"/>
<path d="M16.2222 22.5556C16.2222 21.9419 15.7248 21.4444 15.1111 21.4444C14.4975 21.4444 14 21.9419 14 22.5556V25.5185C14 26.1322 14.4975 26.6296 15.1111 26.6296C15.7248 26.6296 16.2222 26.1322 16.2222 25.5185V22.5556Z" fill="#474E26"/>
<path d="M34 22.5556C34 21.9419 33.5025 21.4444 32.8889 21.4444C32.2752 21.4444 31.7778 21.9419 31.7778 22.5556V25.5185C31.7778 26.1322 32.2752 26.6296 32.8889 26.6296C33.5025 26.6296 34 26.1322 34 25.5185V22.5556Z" fill="#474E26"/>
</svg>
