<svg width="49" height="48" viewBox="0 0 49 48" fill="none" xmlns="http://www.w3.org/2000/svg">
<path d="M0.5 24C0.5 10.7452 11.2452 0 24.5 0C37.7548 0 48.5 10.7452 48.5 24C48.5 37.2548 37.7548 48 24.5 48C11.2452 48 0.5 37.2548 0.5 24Z" fill="#F9F1DB"/>
<path d="M24.494 17.3727H24.5142C25.4451 17.3727 26.1915 16.6172 26.1915 15.6863C26.1915 14.7555 25.4248 14 24.494 14C23.5631 14 22.8076 14.7555 22.8076 15.6863C22.8076 16.6172 23.5631 17.3727 24.494 17.3727Z" fill="#474E26"/>
<path d="M24.503 34C25.4338 34 26.1893 33.2445 26.1893 32.3137V23.5559C26.1893 22.6251 25.4338 21.8696 24.503 21.8696C23.5721 21.8696 22.8166 22.6251 22.8166 23.5559V32.3137C22.8166 33.2445 23.5721 34 24.503 34Z" fill="#474E26"/>
</svg>
