<svg width="48" height="48" viewBox="0 0 48 48" fill="none" xmlns="http://www.w3.org/2000/svg">
<path d="M0 24C0 10.7452 10.7452 0 24 0C37.2548 0 48 10.7452 48 24C48 37.2548 37.2548 48 24 48C10.7452 48 0 37.2548 0 24Z" fill="#474E26"/>
<path d="M29.334 30.9983C29.7607 30.9983 30.1873 30.8339 30.5117 30.5095C31.1628 29.8584 31.1628 28.803 30.5117 28.1519L26.3476 23.99L30.4873 19.8481C31.1383 19.197 31.1383 18.1438 30.4873 17.4927C29.8362 16.8417 28.783 16.8417 28.1319 17.4927L23.99 21.6346L19.8437 17.4883C19.1926 16.8372 18.1394 16.8372 17.4883 17.4883C16.8372 18.1394 16.8372 19.1926 17.4883 19.8437L21.6346 23.99L17.4883 28.1408C16.8372 28.7918 16.8372 29.8451 17.4883 30.4962C17.8127 30.8228 18.2416 30.985 18.666 30.985C19.0926 30.985 19.5192 30.8228 19.8437 30.4962L23.9922 26.3476L28.1541 30.5095C28.4808 30.8339 28.9052 30.9983 29.334 30.9983Z" fill="#F9F1DB"/>
</svg>
