<svg width="134" height="48" viewBox="0 0 134 48" fill="none" xmlns="http://www.w3.org/2000/svg">
<path d="M56.9715 9.08108V19.9389C56.9715 20.8802 57.3052 21.6593 57.9725 22.276C58.6398 22.909 59.4454 23.2255 60.3894 23.2255C61.3333 23.2255 62.1471 22.909 62.8307 22.276C63.498 21.6593 63.8316 20.8802 63.8316 19.9389V9.08108H66.8344V19.9389C66.8344 21.708 66.2078 23.2173 64.9546 24.467C63.7177 25.733 62.2041 26.3659 60.4138 26.3659H60.3894C58.6154 26.3659 57.1017 25.733 55.8485 24.467C54.5791 23.2173 53.9443 21.708 53.9443 19.9389V9.08108H56.9715Z" fill="#474E26"/>
<path d="M74.2339 18.9651C75.1941 18.9651 76.016 18.6243 76.6996 17.9426C77.3669 17.2772 77.7005 16.4738 77.7005 15.5325C77.7005 14.5911 77.3669 13.7715 76.6996 13.0736C75.9997 12.4082 75.1778 12.0755 74.2339 12.0755H72.3296V18.9651H74.2339ZM80.7277 15.5325C80.7277 16.7335 80.4185 17.8371 79.8 18.8434C79.149 19.8659 78.319 20.653 77.3099 21.2048L80.6789 26.1225H77.139L74.3559 21.9595H72.3296V26.1225H69.3268V9.08108H74.2339C76.0079 9.08108 77.5378 9.70593 78.8235 10.9556C80.093 12.2216 80.7277 13.7472 80.7277 15.5325Z" fill="#474E26"/>
<path d="M89.1455 23.1281C89.6988 23.1281 90.1871 22.9171 90.6103 22.4951C91.0171 22.0894 91.2206 21.6025 91.2206 21.0344C91.2206 20.4664 91.0171 19.9795 90.6103 19.5737C90.2034 19.168 89.7151 18.9651 89.1455 18.9651H85.7521V23.1281H89.1455ZM85.7521 16.2628H87.7783C88.348 16.2628 88.8444 16.0518 89.2675 15.6299C89.6744 15.2241 89.8779 14.7372 89.8779 14.1692C89.8779 13.5849 89.6744 13.0899 89.2675 12.6841C88.8607 12.2784 88.3643 12.0755 87.7783 12.0755H85.7521V16.2628ZM91.8797 16.9445C92.84 17.3665 93.5073 17.9426 93.8816 18.673C94.2559 19.452 94.4431 20.2635 94.4431 21.1075C94.4431 22.487 93.9548 23.6637 92.9783 24.6375C92.0018 25.6275 90.8218 26.1225 89.4384 26.1225H82.7493V9.08108H88.0713C89.4547 9.08108 90.6347 9.56798 91.6112 10.5418C92.5877 11.5318 93.076 12.7085 93.076 14.0718C93.076 15.143 92.6772 16.1005 91.8797 16.9445Z" fill="#474E26"/>
<path d="M109.789 26.1225H106.615L105.297 21.6674H99.6576L98.3393 26.1225H95.1656L100.268 9.08108H104.687L109.789 26.1225ZM104.394 18.6486L102.49 12.2459L100.561 18.6486H104.394Z" fill="#474E26"/>
<path d="M114.266 15.7516V26.1225H111.263V9.08108H112.996L120.979 19.452V9.08108H124.007V26.1225H122.273L114.266 15.7516Z" fill="#474E26"/>
<path d="M62.6842 30.9586V33.953H58.1922C57.7365 33.953 57.3459 34.1153 57.0204 34.4399C56.6786 34.7807 56.5077 35.1784 56.5077 35.6328V35.7058C56.5077 36.3063 56.7925 36.7932 57.3622 37.1665L60.8532 39.1871C62.4319 40.1772 63.2213 41.5405 63.2213 43.2771C63.2213 44.5755 62.7574 45.6872 61.8297 46.6123C60.902 47.5374 59.7872 48 58.4852 48H54.042V45.0056H58.534C58.9897 45.0056 59.3884 44.8352 59.7302 44.4943C60.0557 44.1697 60.2185 43.7802 60.2185 43.3258V43.2527C60.2185 42.6522 59.9337 42.1653 59.364 41.792L55.873 39.7714C54.2942 38.7814 53.5049 37.4181 53.5049 35.6815C53.5049 34.3831 53.9687 33.2713 54.8964 32.3462C55.8241 31.4211 56.939 30.9586 58.241 30.9586H62.6842Z" fill="#474E26"/>
<path d="M72.5496 40.7939V48H69.5467V40.7939L63.7609 30.9586H67.2519L71.0359 37.41L74.8444 30.9586H78.3354L72.5496 40.7939Z" fill="#474E26"/>
<path d="M82.5335 37.6291V48H79.5307V30.9586H81.2641L89.2471 41.3295V30.9586H92.2744V48H90.541L82.5335 37.6291Z" fill="#474E26"/>
<path d="M93.6863 30.9586H105.063V33.953H100.888V48H97.8609V33.953H93.6863V30.9586Z" fill="#474E26"/>
<path d="M118.062 48H114.888L113.57 43.5449H107.93L106.612 48H103.438L108.541 30.9586H112.959L118.062 48ZM112.667 40.5261L110.762 34.1234L108.834 40.5261H112.667Z" fill="#474E26"/>
<path d="M126.078 38.0673L129.985 30.9586H133.5L128.764 39.4793L133.5 48H129.985L126.078 40.8913L122.172 48H118.681L123.417 39.4793L118.681 30.9586H122.172L126.078 38.0673Z" fill="#474E26"/>
<path d="M0.5 8.9641C7.45257 9.17038 14.3456 6.32591 21.1789 0C27.9726 6.32591 34.8457 9.17038 41.7983 8.9641V17.5338C38.3816 17.6025 34.7861 16.9149 31.3694 15.471C27.9925 13.9583 24.5658 11.7639 21.1491 8.53222C17.7325 11.7639 14.3456 13.9583 10.9289 15.471C7.51217 16.9149 3.91669 17.6025 0.5 17.5338V8.9641Z" fill="#474E26"/>
<path d="M0.5 39.4256C7.45257 39.6319 14.3456 36.7874 21.1789 30.4615C27.9726 36.7874 34.8457 39.6319 41.7983 39.4256V47.9953C38.3816 48.0641 34.7861 47.3765 31.3694 45.9325C27.9925 44.4198 24.5658 42.2255 21.1491 38.9938C17.7325 42.2255 14.3456 44.4198 10.9289 45.9325C7.51217 47.3765 3.91669 48.0641 0.5 47.9953V39.4256Z" fill="#474E26"/>
<path d="M41.7983 23.9692C34.8457 24.1809 27.9527 21.2616 21.1193 14.7692C14.3257 21.2616 7.45257 24.1809 0.500001 23.9692L0.500002 32.7644C3.91669 32.835 7.51217 32.1293 10.9289 30.6473C14.3058 29.0948 17.7324 26.8427 21.1491 23.526C24.5658 26.8427 27.9527 29.0948 31.3694 30.6473C34.7861 32.1293 38.3816 32.835 41.7983 32.7644V23.9692Z" fill="#474E26"/>
</svg>
