<svg width="1072" height="262" viewBox="0 0 1072 262" fill="none" xmlns="http://www.w3.org/2000/svg">
<path d="M9.59114 242.424V246.36H0.119141V242.424H9.59114Z" fill="#474E26"/>
<path d="M28.6951 251C30.7005 251 32.4071 250.296 33.8151 248.888C35.2231 247.48 35.9271 245.784 35.9271 243.8C35.9271 241.816 35.2231 240.12 33.8151 238.712C32.3858 237.326 30.6791 236.632 28.6951 236.632V251ZM28.6951 232.6C30.7858 232.6 32.6845 233.102 34.3911 234.104C36.1191 235.15 37.4845 236.504 38.4871 238.168C39.4898 239.875 39.9911 241.752 39.9911 243.8C39.9911 245.848 39.4898 247.726 38.4871 249.432C37.4418 251.16 36.0765 252.515 34.3911 253.496C32.6845 254.499 30.7858 255 28.6951 255H24.7591V232.6H28.6951Z" fill="#474E26"/>
<path d="M50.7339 251.064C52.0139 251.064 53.1232 250.595 54.0619 249.656C54.9792 248.739 55.4379 247.619 55.4379 246.296C55.4379 244.952 54.9792 243.822 54.0619 242.904C53.1446 241.987 52.0352 241.528 50.7339 241.528C49.4326 241.528 48.3232 241.987 47.4059 242.904C46.4886 243.822 46.0299 244.952 46.0299 246.296C46.0299 247.619 46.4886 248.739 47.4059 249.656C48.3446 250.595 49.4539 251.064 50.7339 251.064ZM59.4059 237.4V255H55.4379V252.632C53.9019 254.211 52.0672 255 49.9339 255C47.7152 255 45.8166 254.147 44.2379 252.44C42.6592 250.734 41.8699 248.686 41.8699 246.296C41.8699 243.886 42.6486 241.838 44.2059 240.152C45.7419 238.488 47.6512 237.624 49.9339 237.56C52.0672 237.56 53.9019 238.35 55.4379 239.928V237.4H59.4059Z" fill="#474E26"/>
<path d="M77.9986 237.4L72.6546 255H66.9266L61.5826 237.4H65.7106L69.8066 251.832L73.8706 237.4H77.9986Z" fill="#474E26"/>
<path d="M80.2154 237.4H84.1514V255H80.2154V237.4ZM82.1674 235.928C81.5274 235.928 80.9621 235.704 80.4714 235.256C80.0021 234.808 79.7674 234.264 79.7674 233.624C79.7674 232.984 80.0021 232.44 80.4714 231.992C80.9621 231.544 81.5274 231.32 82.1674 231.32C82.8501 231.32 83.4261 231.544 83.8954 231.992C84.3434 232.44 84.5674 232.984 84.5674 233.624C84.5674 234.264 84.3434 234.808 83.8954 235.256C83.4261 235.704 82.8501 235.928 82.1674 235.928Z" fill="#474E26"/>
<path d="M95.7564 251.064C97.0364 251.064 98.1457 250.595 99.0844 249.656C100.002 248.739 100.46 247.619 100.46 246.296C100.46 244.952 100.002 243.822 99.0844 242.904C98.1671 241.987 97.0577 241.528 95.7564 241.528C94.4551 241.528 93.3457 241.987 92.4284 242.904C91.5111 243.822 91.0524 244.952 91.0524 246.296C91.0524 247.619 91.5111 248.739 92.4284 249.656C93.3671 250.595 94.4764 251.064 95.7564 251.064ZM104.396 232.6V255H100.46V252.632C98.8817 254.211 97.0364 255 94.9244 255C92.7271 255 90.8391 254.147 89.2604 252.44C87.6817 250.734 86.8924 248.686 86.8924 246.296C86.8924 243.886 87.6817 241.827 89.2604 240.12C90.8391 238.414 92.7271 237.56 94.9244 237.56C97.0364 237.56 98.8817 238.35 100.46 239.928V232.6H104.396Z" fill="#474E26"/>
<path d="M135.591 255H131.431L129.703 249.144H122.311L120.583 255H116.423L123.111 232.6H128.903L135.591 255ZM128.519 245.176L126.023 236.76L123.495 245.176H128.519Z" fill="#474E26"/>
<path d="M144.426 241.336H141.13V248.408C141.13 249.134 141.397 249.72 141.93 250.168C142.421 250.638 143.039 250.872 143.786 250.872H144.426V255H143.594C141.823 255 140.309 254.371 139.05 253.112C137.791 251.854 137.162 250.339 137.162 248.568V241.336H135.882V237.368H137.162V232.6H141.13V237.368H144.426V241.336Z" fill="#474E26"/>
<path d="M155.027 241.336H151.731V248.408C151.731 249.134 151.998 249.72 152.531 250.168C153.022 250.638 153.641 250.872 154.387 250.872H155.027V255H154.195C152.425 255 150.91 254.371 149.651 253.112C148.393 251.854 147.763 250.339 147.763 248.568V241.336H146.483V237.368H147.763V232.6H151.731V237.368H155.027V241.336Z" fill="#474E26"/>
<path d="M169.99 244.6C169.03 242.552 167.526 241.528 165.478 241.528C163.409 241.528 161.905 242.552 160.966 244.6H169.99ZM174.246 247.96H160.966C161.884 250.03 163.388 251.064 165.478 251.064C166.822 251.064 167.953 250.606 168.87 249.688L171.654 252.472C169.969 254.158 167.91 255 165.478 255C163.046 255 160.977 254.147 159.27 252.44C157.564 250.734 156.71 248.686 156.71 246.296C156.71 243.886 157.564 241.827 159.27 240.12C160.977 238.414 163.046 237.56 165.478 237.56C167.91 237.56 169.98 238.414 171.686 240.12C173.393 241.827 174.246 243.886 174.246 246.296V247.96Z" fill="#474E26"/>
<path d="M180.798 237.4V239.352C181.438 238.67 182.281 238.136 183.326 237.752C184.35 237.39 185.502 237.272 186.782 237.4C188.638 237.592 190.121 238.275 191.23 239.448C192.318 240.622 192.862 242.328 192.862 244.568V255H188.926V244.408C188.926 243.875 188.777 243.31 188.478 242.712C188.158 242.158 187.71 241.688 187.134 241.304C186.516 240.942 185.78 240.76 184.926 240.76C183.945 240.76 183.145 240.942 182.526 241.304C181.95 241.667 181.513 242.136 181.214 242.712C180.937 243.267 180.798 243.832 180.798 244.408V255H176.862V237.4H180.798Z" fill="#474E26"/>
<path d="M204.917 251.064C206.197 251.064 207.306 250.595 208.245 249.656C209.162 248.739 209.621 247.619 209.621 246.296C209.621 244.952 209.162 243.822 208.245 242.904C207.328 241.987 206.218 241.528 204.917 241.528C203.616 241.528 202.506 241.987 201.589 242.904C200.65 243.843 200.181 244.974 200.181 246.296C200.181 247.598 200.65 248.718 201.589 249.656C202.528 250.595 203.637 251.064 204.917 251.064ZM205.717 237.56C207.936 237.56 209.834 238.414 211.413 240.12C212.992 241.827 213.781 243.886 213.781 246.296C213.781 248.686 212.992 250.734 211.413 252.44C209.834 254.147 207.936 255 205.717 255C203.605 255 201.76 254.211 200.181 252.632V255H196.245V232.6H200.181V239.928C201.76 238.35 203.605 237.56 205.717 237.56Z" fill="#474E26"/>
<path d="M224.501 251.064C225.845 251.064 226.986 250.595 227.925 249.656C228.864 248.718 229.333 247.598 229.333 246.296C229.333 244.974 228.864 243.843 227.925 242.904C227.008 241.987 225.866 241.528 224.501 241.528C223.157 241.528 222.026 241.987 221.109 242.904C220.17 243.843 219.701 244.974 219.701 246.296C219.701 247.598 220.17 248.718 221.109 249.656C222.048 250.595 223.178 251.064 224.501 251.064ZM224.501 237.56C226.933 237.56 229.002 238.414 230.709 240.12C232.416 241.827 233.269 243.886 233.269 246.296C233.269 248.686 232.416 250.734 230.709 252.44C229.002 254.147 226.933 255 224.501 255C222.09 255 220.032 254.147 218.325 252.44C216.597 250.734 215.733 248.686 215.733 246.296C215.733 243.864 216.597 241.806 218.325 240.12C220.032 238.414 222.09 237.56 224.501 237.56Z" fill="#474E26"/>
<path d="M247.337 237.432V241.368C244.67 241.07 242.772 241.422 241.641 242.424C240.51 243.427 239.945 244.696 239.945 246.232V255H236.009V237.4H239.945V240.856C240.948 238.659 242.516 237.518 244.649 237.432H247.337Z" fill="#474E26"/>
<path d="M257.266 251.064C258.61 251.064 259.751 250.595 260.69 249.656C261.629 248.718 262.098 247.598 262.098 246.296C262.098 244.974 261.629 243.843 260.69 242.904C259.773 241.987 258.631 241.528 257.266 241.528C255.922 241.528 254.791 241.987 253.874 242.904C252.935 243.843 252.466 244.974 252.466 246.296C252.466 247.598 252.935 248.718 253.874 249.656C254.813 250.595 255.943 251.064 257.266 251.064ZM257.266 237.56C259.698 237.56 261.767 238.414 263.474 240.12C265.181 241.827 266.034 243.886 266.034 246.296C266.034 248.686 265.181 250.734 263.474 252.44C261.767 254.147 259.698 255 257.266 255C254.855 255 252.797 254.147 251.09 252.44C249.362 250.734 248.498 248.686 248.498 246.296C248.498 243.864 249.362 241.806 251.09 240.12C252.797 238.414 254.855 237.56 257.266 237.56Z" fill="#474E26"/>
<path d="M280.87 255V253.016C279.291 254.552 277.297 255.203 274.886 254.968C273.009 254.734 271.537 254.04 270.47 252.888C269.361 251.715 268.806 250.008 268.806 247.768V237.4H272.742V247.928C272.742 248.483 272.902 249.038 273.222 249.592C273.521 250.19 273.969 250.659 274.566 251C275.142 251.384 275.867 251.576 276.742 251.576C277.745 251.576 278.545 251.384 279.142 251C279.718 250.68 280.155 250.211 280.454 249.592C280.731 249.059 280.87 248.504 280.87 247.928V237.4H284.806V255H280.87Z" fill="#474E26"/>
<path d="M296.221 251.064C297.501 251.064 298.611 250.595 299.549 249.656C300.467 248.739 300.925 247.619 300.925 246.296C300.925 244.952 300.467 243.822 299.549 242.904C298.632 241.987 297.523 241.528 296.221 241.528C294.92 241.528 293.811 241.987 292.893 242.904C291.976 243.822 291.517 244.952 291.517 246.296C291.517 247.619 291.976 248.739 292.893 249.656C293.832 250.595 294.941 251.064 296.221 251.064ZM304.861 237.432V253.496C304.861 255.907 304.019 257.891 302.333 259.448C300.648 261.048 298.6 261.848 296.189 261.848C293.395 261.848 290.92 260.984 288.765 259.256L290.749 255.544C291.475 256.312 292.424 256.91 293.597 257.336C294.728 257.763 295.848 257.923 296.957 257.816C298.067 257.731 299.005 257.347 299.773 256.664C300.541 256.003 300.925 254.947 300.925 253.496V252.632C299.347 254.211 297.501 255 295.389 255C293.192 255 291.304 254.147 289.725 252.44C288.147 250.734 287.357 248.686 287.357 246.296C287.357 243.886 288.147 241.827 289.725 240.12C291.304 238.414 293.192 237.56 295.389 237.56C297.501 237.56 299.347 238.35 300.925 239.928V237.432H304.861Z" fill="#474E26"/>
<path d="M312.382 232.6V239.352C313.086 238.67 313.961 238.158 315.006 237.816C316.009 237.432 317.129 237.294 318.366 237.4C320.222 237.592 321.705 238.275 322.814 239.448C323.902 240.622 324.446 242.328 324.446 244.568V255H320.51V244.408C320.51 243.875 320.361 243.31 320.062 242.712C319.742 242.158 319.294 241.688 318.718 241.304C318.099 240.942 317.363 240.76 316.51 240.76C315.529 240.76 314.729 240.942 314.11 241.304C313.534 241.667 313.097 242.136 312.798 242.712C312.521 243.267 312.382 243.832 312.382 244.408V255H308.446V232.6H312.382Z" fill="#474E26"/>
<path d="M44.1431 28.6163L34.9631 77.0003H14.2271L1.26714 1.40031H15.8471L25.3511 60.0443L37.4471 1.40031H50.9471L63.0431 60.0443L72.5471 1.40031H87.1271L74.0591 77.0003H53.4311L44.1431 28.6163Z" fill="#96A246"/>
<path d="M106.45 14.6843V32.5043H126.646V45.8963H106.45V63.7163H135.178V77.0003H93.1659V1.40031H135.178V14.6843H106.45Z" fill="#96A246"/>
<path d="M176.705 30.9923V77.0003H163.421V1.40031H171.089L206.405 47.4083V1.40031H219.797V77.0003H212.129L176.705 30.9923Z" fill="#96A246"/>
<path d="M242.783 14.6843V32.5043H262.979V45.8963H242.783V63.7163H271.511V77.0003H229.499V1.40031H271.511V14.6843H242.783Z" fill="#96A246"/>
<path d="M291.564 14.6843V32.5043H311.76V45.8963H291.564V63.7163H320.292V77.0003H278.28V1.40031H320.292V14.6843H291.564Z" fill="#96A246"/>
<path d="M340.346 63.5003C347.114 63.5003 352.874 61.1243 357.626 56.3723C362.378 51.6203 364.754 45.8963 364.754 39.2003C364.754 32.5043 362.378 26.7803 357.626 22.0283C352.802 17.3483 347.042 15.0083 340.346 15.0083V63.5003ZM340.346 1.40031C347.402 1.40031 353.81 3.09231 359.57 6.47631C365.402 10.0043 370.01 14.5763 373.394 20.1923C376.778 25.9523 378.47 32.2883 378.47 39.2003C378.47 46.1123 376.778 52.4483 373.394 58.2083C369.866 64.0403 365.258 68.6123 359.57 71.9243C353.81 75.3083 347.402 77.0003 340.346 77.0003H327.062V1.40031H340.346Z" fill="#96A246"/>
<path d="M400.56 1.40031H450.888V14.6843H432.42V77.0003H419.028V14.6843H400.56V1.40031Z" fill="#96A246"/>
<path d="M488.064 63.8243C494.976 63.8243 500.88 61.3763 505.776 56.4803C510.6 51.6563 513.012 45.8243 513.012 38.9843C513.012 32.1443 510.6 26.3123 505.776 21.4883C500.952 16.6643 495.048 14.2523 488.064 14.2523C481.224 14.2523 475.392 16.6643 470.568 21.4883C465.672 26.3843 463.224 32.2163 463.224 38.9843C463.224 45.8243 465.672 51.6923 470.568 56.5883C475.392 61.4123 481.224 63.8243 488.064 63.8243ZM488.064 0.320312C495.264 0.320312 501.816 2.04831 507.72 5.50431C513.552 9.03231 518.232 13.7123 521.76 19.5443C525.288 25.3043 527.052 31.7843 527.052 38.9843C527.052 46.1843 525.288 52.6643 521.76 58.4243C518.232 64.3283 513.552 69.0083 507.72 72.4643C501.816 75.9923 495.264 77.7563 488.064 77.7563C480.936 77.7563 474.42 75.9923 468.516 72.4643C462.612 69.0083 457.932 64.3283 454.476 58.4243C450.948 52.6643 449.184 46.1843 449.184 38.9843C449.184 31.9283 450.948 25.4483 454.476 19.5443C457.932 13.7123 462.612 9.03231 468.516 5.50431C474.492 2.04831 481.008 0.320312 488.064 0.320312Z" fill="#96A246"/>
<path d="M594.053 28.6163L584.873 77.0003H564.137L551.177 1.40031H565.757L575.261 60.0443L587.357 1.40031H600.857L612.953 60.0443L622.457 1.40031H637.037L623.969 77.0003H603.341L594.053 28.6163Z" fill="#474E26"/>
<path d="M678.608 63.8243C685.52 63.8243 691.424 61.3763 696.32 56.4803C701.144 51.6563 703.556 45.8243 703.556 38.9843C703.556 32.1443 701.144 26.3123 696.32 21.4883C691.496 16.6643 685.592 14.2523 678.608 14.2523C671.768 14.2523 665.936 16.6643 661.112 21.4883C656.216 26.3843 653.768 32.2163 653.768 38.9843C653.768 45.8243 656.216 51.6923 661.112 56.5883C665.936 61.4123 671.768 63.8243 678.608 63.8243ZM678.608 0.320312C685.808 0.320312 692.36 2.04831 698.264 5.50431C704.096 9.03231 708.776 13.7123 712.304 19.5443C715.832 25.3043 717.596 31.7843 717.596 38.9843C717.596 46.1843 715.832 52.6643 712.304 58.4243C708.776 64.3283 704.096 69.0083 698.264 72.4643C692.36 75.9923 685.808 77.7563 678.608 77.7563C671.48 77.7563 664.964 75.9923 659.06 72.4643C653.156 69.0083 648.476 64.3283 645.02 58.4243C641.492 52.6643 639.728 46.1843 639.728 38.9843C639.728 31.9283 641.492 25.4483 645.02 19.5443C648.476 13.7123 653.156 9.03231 659.06 5.50431C665.036 2.04831 671.552 0.320312 678.608 0.320312Z" fill="#474E26"/>
<path d="M745.628 45.2483C749.876 45.2483 753.512 43.7363 756.536 40.7123C759.488 37.7603 760.964 34.1963 760.964 30.0203C760.964 25.8443 759.488 22.2083 756.536 19.1123C753.44 16.1603 749.804 14.6843 745.628 14.6843H737.204V45.2483H745.628ZM774.356 30.0203C774.356 35.3483 772.988 40.2443 770.252 44.7083C767.372 49.2443 763.7 52.7363 759.236 55.1843L774.14 77.0003H758.48L746.168 58.5323H737.204V77.0003H723.92V1.40031H745.628C753.476 1.40031 760.244 4.17231 765.932 9.71631C771.548 15.3323 774.356 22.1003 774.356 30.0203Z" fill="#474E26"/>
<path d="M794.531 1.40031V37.2563L819.047 1.40031H834.167L808.247 39.2003L834.167 77.0003H819.047L794.531 41.1443V77.0003H781.139V1.40031H794.531Z" fill="#474E26"/>
<path d="M899.246 28.6163L890.066 77.0003H869.33L856.37 1.40031H870.95L880.454 60.0443L892.55 1.40031H906.05L918.146 60.0443L927.65 1.40031H942.23L929.162 77.0003H908.534L899.246 28.6163Z" fill="#474E26"/>
<path d="M961.444 0.752313V76.3523H948.16V0.752313H961.444Z" fill="#474E26"/>
<path d="M965.594 1.40031H1015.92V14.6843H997.454V77.0003H984.062V14.6843H965.594V1.40031Z" fill="#474E26"/>
<path d="M1033.38 1.40031V32.5043H1058.44V1.40031H1071.83V77.0003H1058.44V45.8963H1033.38V77.0003H1020.1V1.40031H1033.38Z" fill="#474E26"/>
<path d="M18.2231 138.992V185H4.93914V109.4H12.6071L47.9231 155.408V109.4H61.3151V185H53.6471L18.2231 138.992Z" fill="#474E26"/>
<path d="M130.957 185H116.917L111.085 165.236H86.1374L80.3054 185H66.2654L88.8374 109.4H108.385L130.957 185ZM107.089 151.844L98.6654 123.44L90.1334 151.844H107.089Z" fill="#474E26"/>
<path d="M122.229 109.4H172.557V122.684H154.089V185H140.697V122.684H122.229V109.4Z" fill="#474E26"/>
<path d="M189.8 109.4V157.568C189.8 161.744 191.276 165.2 194.228 167.936C197.18 170.744 200.744 172.148 204.92 172.148C209.096 172.148 212.696 170.744 215.72 167.936C218.672 165.2 220.148 161.744 220.148 157.568V109.4H233.432V157.568C233.432 165.416 230.66 172.112 225.116 177.656C219.644 183.272 212.948 186.08 205.028 186.08H204.92C197.072 186.08 190.376 183.272 184.832 177.656C179.216 172.112 176.408 165.416 176.408 157.568V109.4H189.8Z" fill="#474E26"/>
<path d="M264.654 153.248C268.902 153.248 272.538 151.736 275.562 148.712C278.514 145.76 279.99 142.196 279.99 138.02C279.99 133.844 278.514 130.208 275.562 127.112C272.466 124.16 268.83 122.684 264.654 122.684H256.23V153.248H264.654ZM293.382 138.02C293.382 143.348 292.014 148.244 289.278 152.708C286.398 157.244 282.726 160.736 278.262 163.184L293.166 185H277.506L265.194 166.532H256.23V185H242.946V109.4H264.654C272.502 109.4 279.27 112.172 284.958 117.716C290.574 123.332 293.382 130.1 293.382 138.02Z" fill="#474E26"/>
<path d="M314.097 122.684V140.504H334.293V153.896H314.097V171.716H342.825V185H300.813V109.4H342.825V122.684H314.097Z" fill="#474E26"/>
<path d="M356.182 170.636C358.414 170.636 360.322 171.392 361.906 172.904C363.49 174.488 364.282 176.324 364.282 178.412C364.282 179.708 363.922 181.04 363.202 182.408L353.698 197.744H348.946L354.13 185.972C350.098 184.532 348.082 182.012 348.082 178.412C348.082 176.324 348.874 174.488 350.458 172.904C352.114 171.392 354.022 170.636 356.182 170.636Z" fill="#474E26"/>
<path d="M407.324 138.992V185H394.04V109.4H401.708L437.024 155.408V109.4H450.416V185H442.748L407.324 138.992Z" fill="#96A246"/>
<path d="M496.298 171.824C503.21 171.824 509.114 169.376 514.01 164.48C518.834 159.656 521.246 153.824 521.246 146.984C521.246 140.144 518.834 134.312 514.01 129.488C509.186 124.664 503.282 122.252 496.298 122.252C489.458 122.252 483.626 124.664 478.802 129.488C473.906 134.384 471.458 140.216 471.458 146.984C471.458 153.824 473.906 159.692 478.802 164.588C483.626 169.412 489.458 171.824 496.298 171.824ZM496.298 108.32C503.498 108.32 510.05 110.048 515.954 113.504C521.786 117.032 526.466 121.712 529.994 127.544C533.522 133.304 535.286 139.784 535.286 146.984C535.286 154.184 533.522 160.664 529.994 166.424C526.466 172.328 521.786 177.008 515.954 180.464C510.05 183.992 503.498 185.756 496.298 185.756C489.17 185.756 482.654 183.992 476.75 180.464C470.846 177.008 466.166 172.328 462.71 166.424C459.182 160.664 457.418 154.184 457.418 146.984C457.418 139.928 459.182 133.448 462.71 127.544C466.166 121.712 470.846 117.032 476.75 113.504C482.726 110.048 489.242 108.32 496.298 108.32Z" fill="#96A246"/>
<path d="M534.11 109.4H584.438V122.684H565.97V185H552.578V122.684H534.11V109.4Z" fill="#96A246"/>
<path d="M670.027 185H655.987L650.155 165.236H625.207L619.375 185H605.335L627.907 109.4H647.455L670.027 185ZM646.159 151.844L637.735 123.44L629.203 151.844H646.159Z" fill="#96A246"/>
<path d="M706.959 185C699.975 185 693.603 183.308 687.843 179.924C682.083 176.54 677.511 171.968 674.127 166.208C670.671 160.448 668.943 154.112 668.943 147.2C668.943 140.216 670.671 133.88 674.127 128.192C677.439 122.576 682.011 118.004 687.843 114.476C693.603 111.092 699.975 109.4 706.959 109.4H720.351V123.008H706.959C700.335 123.008 694.611 125.348 689.787 130.028C685.035 134.78 682.659 140.504 682.659 147.2C682.659 153.896 685.035 159.62 689.787 164.372C694.539 169.124 700.263 171.5 706.959 171.5V153.896H695.511V140.504H720.351V185H706.959Z" fill="#96A246"/>
<path d="M789.241 185H775.201L769.369 165.236H744.421L738.589 185H724.549L747.121 109.4H766.669L789.241 185ZM765.373 151.844L756.949 123.44L748.417 151.844H765.373Z" fill="#96A246"/>
<path d="M807.426 108.752V184.352H794.142V108.752H807.426Z" fill="#96A246"/>
<path d="M831.123 138.992V185H817.839V109.4H825.507L860.823 155.408V109.4H874.215V185H866.547L831.123 138.992Z" fill="#96A246"/>
<path d="M922.257 109.4V122.684H902.385C900.369 122.684 898.641 123.404 897.201 124.844C895.689 126.356 894.933 128.12 894.933 130.136V130.46C894.933 133.124 896.193 135.284 898.713 136.94L914.157 145.904C921.141 150.296 924.633 156.344 924.633 164.048C924.633 169.808 922.581 174.74 918.477 178.844C914.373 182.948 909.441 185 903.681 185H884.025V171.716H903.897C905.913 171.716 907.677 170.96 909.189 169.448C910.629 168.008 911.349 166.28 911.349 164.264V163.94C911.349 161.276 910.089 159.116 907.569 157.46L892.125 148.496C885.141 144.104 881.649 138.056 881.649 130.352C881.649 124.592 883.701 119.66 887.805 115.556C891.909 111.452 896.841 109.4 902.601 109.4H922.257Z" fill="#96A246"/>
<path d="M926.48 109.4H976.808V122.684H958.34V185H944.948V122.684H926.48V109.4Z" fill="#96A246"/>
<path d="M1016.28 108.752V184.352H1003V108.752H1016.28Z" fill="#96A246"/>
<path d="M1021.08 109.4H1071.41V122.684H1052.94V185H1039.55V122.684H1021.08V109.4Z" fill="#96A246"/>
</svg>
